<svg xmlns="http://www.w3.org/2000/svg">
  <symbol id="menu" viewBox="0 0 24 24">
    <path d="M4 6h16M4 12h16M4 18h16"/>
  </symbol>
  <symbol id="plus" viewBox="0 0 24 24">
    <path d="M12 5v14M5 12h14"/>
  </symbol>
  <symbol id="close" viewBox="0 0 24 24">
    <path d="m6 6 12 12M18 6 6 18"/>
  </symbol>
  <symbol id="chevrons-left" viewBox="0 0 24 24">
    <path d="m11 17-5-5 5-5M18 17l-5-5 5-5"/>
  </symbol>
  <symbol id="chevron-down" viewBox="0 0 24 24">
    <path d="m6 9 6 6 6-6"/>
  </symbol>
  <symbol id="filter" viewBox="0 0 24 24">
    <path d="M4 5h16M7 12h10M10 19h4"/>
  </symbol>
  <symbol id="dashboard" viewBox="0 0 24 24">
    <rect x="3" y="3" width="7" height="7" rx="1"/><rect x="14" y="3" width="7" height="7" rx="1"/>
    <rect x="3" y="14" width="7" height="7" rx="1"/><rect x="14" y="14" width="7" height="7" rx="1"/>
  </symbol>
  <symbol id="chart" viewBox="0 0 24 24">
    <path d="M4 19V9M10 19V5M16 19v-7M22 19V3M2 19h21"/>
  </symbol>
  <symbol id="wallet" viewBox="0 0 24 24">
    <path d="M20 7V5a2 2 0 0 0-2-2H5a3 3 0 0 0 0 6h15v12H5a3 3 0 0 1-3-3V6"/>
    <path d="M16 13h2"/>
  </symbol>
  <symbol id="tag" viewBox="0 0 24 24">
    <path d="M20.6 13.6 11 23l-9-9V4h10l8.6 8.6a1.4 1.4 0 0 1 0 2Z"/><path d="M7 9h.01"/>
  </symbol>
  <symbol id="package" viewBox="0 0 24 24">
    <path d="m12 3 9 5-9 5-9-5 9-5Z"/><path d="m3 8 9 5 9-5M3 8v10l9 5 9-5V8M12 13v10"/>
  </symbol>
  <symbol id="receipt" viewBox="0 0 24 24">
    <path d="M6 3v18l3-2 3 2 3-2 3 2V3l-3 2-3-2-3 2-3-2Z"/><path d="M9 9h6M9 13h6"/>
  </symbol>
  <symbol id="bag" viewBox="0 0 24 24">
    <path d="M6 8h12l1 13H5L6 8Z"/><path d="M9 9V6a3 3 0 0 1 6 0v3"/>
  </symbol>
  <symbol id="logout" viewBox="0 0 24 24">
    <path d="M10 17l5-5-5-5M15 12H3M15 3h4a2 2 0 0 1 2 2v14a2 2 0 0 1-2 2h-4"/>
  </symbol>
  <symbol id="more" viewBox="0 0 24 24">
    <circle cx="5" cy="12" r="1"/><circle cx="12" cy="12" r="1"/><circle cx="19" cy="12" r="1"/>
  </symbol>
  <symbol id="trend" viewBox="0 0 24 24">
    <path d="m3 17 6-6 4 4 8-8"/><path d="M15 7h6v6"/>
  </symbol>
  <symbol id="coins" viewBox="0 0 24 24">
    <ellipse cx="9" cy="7" rx="6" ry="3"/><path d="M3 7v4c0 1.7 2.7 3 6 3s6-1.3 6-3V7M3 11v4c0 1.7 2.7 3 6 3 1 0 2-.1 2.8-.4"/><path d="M15 13c3.3 0 6 1.3 6 3s-2.7 3-6 3-6-1.3-6-3 2.7-3 6-3Z"/>
  </symbol>
  <symbol id="calendar" viewBox="0 0 24 24">
    <rect x="3" y="5" width="18" height="16" rx="2"/><path d="M16 3v4M8 3v4M3 10h18"/>
  </symbol>
  <symbol id="layers" viewBox="0 0 24 24">
    <path d="m12 2 9 5-9 5-9-5 9-5Z"/><path d="m3 12 9 5 9-5M3 17l9 5 9-5"/>
  </symbol>
  <symbol id="arrow-up-right" viewBox="0 0 24 24">
    <path d="M7 17 17 7M7 7h10v10"/>
  </symbol>
  <symbol id="user" viewBox="0 0 24 24">
    <circle cx="12" cy="8" r="4"/><path d="M4 21a8 8 0 0 1 16 0"/>
  </symbol>
</svg>
